M48
;Layer_Color=9474304
;FILE_FORMAT=2:5
INCH,LZ
;TYPE=PLATED
T1F00S00C0.03110
T2F00S00C0.03937
T3F00S00C0.04016
T4F00S00C0.04331
T5F00S00C0.08661
%
T01
X0184Y00305
Y00405
Y00505
T02
X0209173Y00725
X0219173
X0219567Y0114
X0209567
T03
X006811Y001626
Y002626
Y003626
Y004626
Y005626
X016811
Y004626
Y003626
Y002626
Y001626
Y006626
Y007626
Y008626
Y009626
Y010626
Y011626
Y012626
Y013626
Y014626
Y015626
Y016626
Y017626
Y018626
Y019626
X006811
Y018626
Y017626
Y016626
Y015626
Y014626
Y013626
Y012626
Y011626
Y010626
Y009626
Y008626
Y007626
Y006626
T04
X0204724Y00345
Y00445
X0031496Y0060213
Y0070213
Y0080213
Y0111394
Y0121394
Y0131394
Y0165449
Y0175449
Y0185449
Y0195449
X0204724Y0199724
Y0209724
Y01805
Y01705
Y01605
Y01505
T05
X0226378Y0009843
X0009843
X0226378Y0226378
X0009843
M30
