G04*
G04 #@! TF.GenerationSoftware,Altium Limited,Altium Designer,22.4.2 (48)*
G04*
G04 Layer_Color=65535*
%FSLAX44Y44*%
%MOMM*%
G71*
G04*
G04 #@! TF.SameCoordinates,401EAB3C-69B4-4000-897E-A26D65C5C49B*
G04*
G04*
G04 #@! TF.FilePolarity,Positive*
G04*
G01*
G75*
%ADD10C,0.2000*%
%ADD11C,0.1270*%
%ADD12C,0.1520*%
%ADD13C,0.1524*%
%ADD14C,0.2540*%
D10*
X155300Y499700D02*
G03*
X155300Y499700I-1000J0D01*
G01*
X468360Y144760D02*
G03*
X468360Y144760I-1000J0D01*
G01*
X67300Y490090D02*
X73650Y483740D01*
X67300Y490090D02*
Y502790D01*
X73650Y509140D01*
X86350D01*
X92700Y502790D01*
Y490090D02*
Y502790D01*
X86350Y483740D02*
X92700Y490090D01*
X67300Y464690D02*
X73650Y458340D01*
X67300Y464690D02*
Y477390D01*
X73650Y483740D01*
X86350D01*
X92700Y477390D01*
Y464690D02*
Y477390D01*
X86350Y458340D02*
X92700Y464690D01*
Y407540D02*
Y432940D01*
X86350D02*
X92700Y439290D01*
Y451990D01*
X86350Y458340D02*
X92700Y451990D01*
X73650Y458340D02*
X86350D01*
X67300Y451990D02*
X73650Y458340D01*
X67300Y439290D02*
Y451990D01*
Y439290D02*
X73650Y432940D01*
X67300Y407540D02*
X92700D01*
X67300Y432940D02*
X92700D01*
X67300Y407540D02*
Y432940D01*
Y270240D02*
Y295640D01*
X92700D01*
X67300Y270240D02*
X92700D01*
X67300Y301990D02*
X73650Y295640D01*
X67300Y301990D02*
Y314690D01*
X73650Y321040D01*
X86350D01*
X92700Y314690D01*
Y301990D02*
Y314690D01*
X86350Y295640D02*
X92700Y301990D01*
Y270240D02*
Y295640D01*
X86350Y321040D02*
X92700Y327390D01*
Y340090D01*
X86350Y346440D02*
X92700Y340090D01*
X73650Y346440D02*
X86350D01*
X67300Y340090D02*
X73650Y346440D01*
X67300Y327390D02*
Y340090D01*
Y327390D02*
X73650Y321040D01*
X67300Y140240D02*
Y165640D01*
X92700D01*
X67300Y140240D02*
X92700D01*
X67300Y171990D02*
X73650Y165640D01*
X67300Y171990D02*
Y184690D01*
X73650Y191040D01*
X86350D01*
X92700Y184690D01*
Y171990D02*
Y184690D01*
X86350Y165640D02*
X92700Y171990D01*
Y140240D02*
Y165640D01*
X86350Y191040D02*
X92700Y197390D01*
Y210090D01*
X86350Y216440D02*
X92700Y210090D01*
X73650Y216440D02*
X86350D01*
X67300Y210090D02*
X73650Y216440D01*
X67300Y197390D02*
Y210090D01*
Y197390D02*
X73650Y191040D01*
X513000Y257560D02*
Y321560D01*
Y257560D02*
X571000D01*
Y321560D01*
X513000D02*
X571000D01*
X512000Y216150D02*
X570000D01*
Y152150D02*
Y216150D01*
X512000Y152150D02*
X570000D01*
X512000D02*
Y216150D01*
X507300Y520000D02*
Y545400D01*
Y513650D02*
X513650Y520000D01*
X507300Y500950D02*
Y513650D01*
Y500950D02*
X513650Y494600D01*
X526350D01*
X532700Y500950D01*
Y513650D01*
X526350Y520000D02*
X532700Y513650D01*
X507300Y545400D02*
X532700D01*
X507300Y520000D02*
X532700D01*
Y545400D01*
X526350Y394970D02*
X532700Y388620D01*
Y375920D02*
Y388620D01*
X526350Y369570D02*
X532700Y375920D01*
X513650Y369570D02*
X526350D01*
X507300Y375920D02*
X513650Y369570D01*
X507300Y375920D02*
Y388620D01*
X513650Y394970D01*
X526350Y420370D02*
X532700Y414020D01*
Y401320D02*
Y414020D01*
X526350Y394970D02*
X532700Y401320D01*
X513650Y394970D02*
X526350D01*
X507300Y401320D02*
X513650Y394970D01*
X507300Y401320D02*
Y414020D01*
X513650Y420370D01*
X507300Y445770D02*
Y471170D01*
Y439420D02*
X513650Y445770D01*
X507300Y426720D02*
Y439420D01*
Y426720D02*
X513650Y420370D01*
X526350D01*
X532700Y426720D01*
Y439420D01*
X526350Y445770D02*
X532700Y439420D01*
X507300Y471170D02*
X532700D01*
X507300Y445770D02*
X532700D01*
Y471170D01*
X507300Y100330D02*
Y125730D01*
Y93980D02*
X513650Y100330D01*
X507300Y81280D02*
Y93980D01*
Y81280D02*
X513650Y74930D01*
X526350D01*
X532700Y81280D01*
Y93980D01*
X526350Y100330D02*
X532700Y93980D01*
X507300Y125730D02*
X532700D01*
X507300Y100330D02*
X532700D01*
Y125730D01*
D11*
X490668Y102656D02*
G03*
X476850Y124770I-26061J-910D01*
G01*
Y80970D02*
G03*
X490668Y103084I-12242J23024D01*
G01*
X160500Y29000D02*
Y511000D01*
X439500Y29000D02*
Y511000D01*
X390000D02*
X439500D01*
X160500D02*
X210000D01*
Y573000D01*
X390000D01*
Y511000D02*
Y573000D01*
X160500Y29000D02*
X259300D01*
Y20000D02*
Y29000D01*
Y20000D02*
X340600D01*
Y29000D01*
X439500D01*
X454660Y79870D02*
Y125870D01*
D12*
X487458Y281278D02*
Y293967D01*
X472615D02*
X487458D01*
X472542Y293894D02*
X472615Y293967D01*
X472542Y264776D02*
Y277449D01*
Y264776D02*
X487458D01*
Y277523D01*
X472542Y174663D02*
Y187353D01*
Y174663D02*
X487385D01*
X487458Y174736D01*
Y191181D02*
Y203854D01*
X472542D02*
X487458D01*
X472542Y191108D02*
Y203854D01*
D13*
Y281204D02*
Y293894D01*
Y277449D02*
Y281204D01*
X487458Y277523D02*
Y281278D01*
Y174736D02*
Y187426D01*
Y191181D01*
X472542Y187353D02*
Y191108D01*
D14*
X15240Y116122D02*
X28569D01*
X21904D01*
Y96128D01*
X35234Y116122D02*
Y96128D01*
Y106125D01*
X38566Y109457D01*
X45230D01*
X48563Y106125D01*
Y96128D01*
X65224D02*
X58559D01*
X55227Y99460D01*
Y106125D01*
X58559Y109457D01*
X65224D01*
X68556Y106125D01*
Y102793D01*
X55227D01*
X75221Y109457D02*
Y96128D01*
Y102793D01*
X78553Y106125D01*
X81885Y109457D01*
X85218D01*
X95214Y96128D02*
Y109457D01*
X98546D01*
X101879Y106125D01*
Y96128D01*
Y106125D01*
X105211Y109457D01*
X108543Y106125D01*
Y96128D01*
X118540Y109457D02*
X125205D01*
X128537Y106125D01*
Y96128D01*
X118540D01*
X115208Y99460D01*
X118540Y102793D01*
X128537D01*
X28569Y82701D02*
X25237Y86034D01*
X18572D01*
X15240Y82701D01*
Y79369D01*
X18572Y76037D01*
X25237D01*
X28569Y72705D01*
Y69372D01*
X25237Y66040D01*
X18572D01*
X15240Y69372D01*
X35234Y86034D02*
Y66040D01*
Y76037D01*
X38566Y79369D01*
X45230D01*
X48563Y76037D01*
Y66040D01*
X55227D02*
X61892D01*
X58559D01*
Y79369D01*
X55227D01*
X81885Y66040D02*
X75221D01*
X71888Y69372D01*
Y76037D01*
X75221Y79369D01*
X81885D01*
X85217Y76037D01*
Y72705D01*
X71888D01*
X91882Y66040D02*
X98546D01*
X95214D01*
Y86034D01*
X91882D01*
X121872D02*
Y66040D01*
X111875D01*
X108543Y69372D01*
Y76037D01*
X111875Y79369D01*
X121872D01*
X457577Y535777D02*
X455578Y537776D01*
X451579D01*
X449580Y535777D01*
Y533777D01*
X451579Y531778D01*
X455578D01*
X457577Y529779D01*
Y527779D01*
X455578Y525780D01*
X451579D01*
X449580Y527779D01*
X469574Y535777D02*
X467574Y537776D01*
X463576D01*
X461576Y535777D01*
Y527779D01*
X463576Y525780D01*
X467574D01*
X469574Y527779D01*
X473572Y537776D02*
Y525780D01*
X481570D01*
X485568Y535777D02*
X487568Y537776D01*
X491566D01*
X493566Y535777D01*
Y527779D01*
X491566Y525780D01*
X487568D01*
X485568Y527779D01*
Y535777D01*
X523617Y64607D02*
X521618Y66606D01*
X517619D01*
X515620Y64607D01*
Y56609D01*
X517619Y54610D01*
X521618D01*
X523617Y56609D01*
Y60608D01*
X519619D01*
X512187Y144076D02*
X504190D01*
Y138078D01*
X508189D01*
X504190D01*
Y132080D01*
X516186D02*
Y140077D01*
X520185Y144076D01*
X524184Y140077D01*
Y132080D01*
Y138078D01*
X516186D01*
X528182Y132080D02*
Y144076D01*
X536180Y132080D01*
Y144076D01*
X457577Y510377D02*
X455578Y512376D01*
X451579D01*
X449580Y510377D01*
Y508377D01*
X451579Y506378D01*
X455578D01*
X457577Y504379D01*
Y502379D01*
X455578Y500380D01*
X451579D01*
X449580Y502379D01*
X461576Y512376D02*
Y500380D01*
X467574D01*
X469574Y502379D01*
Y510377D01*
X467574Y512376D01*
X461576D01*
X473572Y500380D02*
Y508377D01*
X477571Y512376D01*
X481570Y508377D01*
Y500380D01*
Y506378D01*
X473572D01*
X485568Y510377D02*
X487568Y512376D01*
X491566D01*
X493566Y510377D01*
Y502379D01*
X491566Y500380D01*
X487568D01*
X485568Y502379D01*
Y510377D01*
X455037Y384647D02*
X453038Y386646D01*
X449039D01*
X447040Y384647D01*
Y376649D01*
X449039Y374650D01*
X453038D01*
X455037Y376649D01*
X467034Y384647D02*
X465034Y386646D01*
X461035D01*
X459036Y384647D01*
Y382647D01*
X461035Y380648D01*
X465034D01*
X467034Y378649D01*
Y376649D01*
X465034Y374650D01*
X461035D01*
X459036Y376649D01*
X471032Y384647D02*
X473032Y386646D01*
X477030D01*
X479030Y384647D01*
Y376649D01*
X477030Y374650D01*
X473032D01*
X471032Y376649D01*
Y384647D01*
X455037Y410047D02*
X453038Y412046D01*
X449039D01*
X447040Y410047D01*
Y408047D01*
X449039Y406048D01*
X453038D01*
X455037Y404049D01*
Y402049D01*
X453038Y400050D01*
X449039D01*
X447040Y402049D01*
X467034Y410047D02*
X465034Y412046D01*
X461035D01*
X459036Y410047D01*
Y402049D01*
X461035Y400050D01*
X465034D01*
X467034Y402049D01*
X471032Y412046D02*
Y400050D01*
Y404049D01*
X479030Y412046D01*
X473032Y406048D01*
X479030Y400050D01*
X483028Y410047D02*
X485028Y412046D01*
X489026D01*
X491026Y410047D01*
Y402049D01*
X489026Y400050D01*
X485028D01*
X483028Y402049D01*
Y410047D01*
X447040Y424880D02*
Y436876D01*
X451039Y432877D01*
X455037Y436876D01*
Y424880D01*
X459036Y436876D02*
X463035D01*
X461035D01*
Y424880D01*
X459036D01*
X463035D01*
X477030Y434877D02*
X475031Y436876D01*
X471032D01*
X469033Y434877D01*
Y432877D01*
X471032Y430878D01*
X475031D01*
X477030Y428879D01*
Y426879D01*
X475031Y424880D01*
X471032D01*
X469033Y426879D01*
X487027Y436876D02*
X483028D01*
X481029Y434877D01*
Y426879D01*
X483028Y424880D01*
X487027D01*
X489026Y426879D01*
Y434877D01*
X487027Y436876D01*
X493025Y434877D02*
X495024Y436876D01*
X499023D01*
X501022Y434877D01*
Y426879D01*
X499023Y424880D01*
X495024D01*
X493025Y426879D01*
Y434877D01*
X447040Y452120D02*
Y464116D01*
X451039Y460117D01*
X455037Y464116D01*
Y452120D01*
X465034Y464116D02*
X461035D01*
X459036Y462117D01*
Y454119D01*
X461035Y452120D01*
X465034D01*
X467034Y454119D01*
Y462117D01*
X465034Y464116D01*
X479030Y462117D02*
X477030Y464116D01*
X473032D01*
X471032Y462117D01*
Y460117D01*
X473032Y458118D01*
X477030D01*
X479030Y456119D01*
Y454119D01*
X477030Y452120D01*
X473032D01*
X471032Y454119D01*
X483028Y464116D02*
X487027D01*
X485028D01*
Y452120D01*
X483028D01*
X487027D01*
X493025Y462117D02*
X495024Y464116D01*
X499023D01*
X501022Y462117D01*
Y454119D01*
X499023Y452120D01*
X495024D01*
X493025Y454119D01*
Y462117D01*
X110537Y502916D02*
X102540D01*
Y496918D01*
X106539Y498917D01*
X108538D01*
X110537Y496918D01*
Y492919D01*
X108538Y490920D01*
X104539D01*
X102540Y492919D01*
X114536Y502916D02*
Y494919D01*
X118535Y490920D01*
X122534Y494919D01*
Y502916D01*
X110537Y476246D02*
X102540D01*
Y470248D01*
X106539Y472247D01*
X108538D01*
X110537Y470248D01*
Y466249D01*
X108538Y464250D01*
X104539D01*
X102540Y466249D01*
X114536Y476246D02*
Y468249D01*
X118535Y464250D01*
X122534Y468249D01*
Y476246D01*
X102540Y449417D02*
X104539Y451416D01*
X108538D01*
X110537Y449417D01*
Y447417D01*
X108538Y445418D01*
X106539D01*
X108538D01*
X110537Y443419D01*
Y441419D01*
X108538Y439420D01*
X104539D01*
X102540Y441419D01*
X114536Y439420D02*
Y441419D01*
X116536D01*
Y439420D01*
X114536D01*
X124533Y449417D02*
X126532Y451416D01*
X130531D01*
X132530Y449417D01*
Y447417D01*
X130531Y445418D01*
X128532D01*
X130531D01*
X132530Y443419D01*
Y441419D01*
X130531Y439420D01*
X126532D01*
X124533Y441419D01*
X136529Y451416D02*
Y443419D01*
X140528Y439420D01*
X144526Y443419D01*
Y451416D01*
X110537Y424017D02*
X108538Y426016D01*
X104539D01*
X102540Y424017D01*
Y416019D01*
X104539Y414020D01*
X108538D01*
X110537Y416019D01*
Y420018D01*
X106539D01*
X110537Y286857D02*
X108538Y288856D01*
X104539D01*
X102540Y286857D01*
Y278859D01*
X104539Y276860D01*
X108538D01*
X110537Y278859D01*
Y282858D01*
X106539D01*
X102540Y314256D02*
X106539D01*
X104539D01*
Y302260D01*
X102540D01*
X106539D01*
X118535Y314256D02*
X114536D01*
X112537Y312257D01*
Y304259D01*
X114536Y302260D01*
X118535D01*
X120534Y304259D01*
Y312257D01*
X118535Y314256D01*
X132530Y302260D02*
X124533D01*
X132530Y310257D01*
Y312257D01*
X130531Y314256D01*
X126532D01*
X124533Y312257D01*
X144526Y314256D02*
X136529D01*
Y308258D01*
X140528Y310257D01*
X142527D01*
X144526Y308258D01*
Y304259D01*
X142527Y302260D01*
X138528D01*
X136529Y304259D01*
X102540Y337087D02*
X104539Y339086D01*
X108538D01*
X110537Y337087D01*
Y335087D01*
X108538Y333088D01*
X106539D01*
X108538D01*
X110537Y331089D01*
Y329089D01*
X108538Y327090D01*
X104539D01*
X102540Y329089D01*
X114536Y327090D02*
Y329089D01*
X116536D01*
Y327090D01*
X114536D01*
X124533Y337087D02*
X126532Y339086D01*
X130531D01*
X132530Y337087D01*
Y335087D01*
X130531Y333088D01*
X128532D01*
X130531D01*
X132530Y331089D01*
Y329089D01*
X130531Y327090D01*
X126532D01*
X124533Y329089D01*
X136529Y339086D02*
Y331089D01*
X140528Y327090D01*
X144526Y331089D01*
Y339086D01*
X102540Y206277D02*
X104539Y208276D01*
X108538D01*
X110537Y206277D01*
Y204277D01*
X108538Y202278D01*
X106539D01*
X108538D01*
X110537Y200279D01*
Y198279D01*
X108538Y196280D01*
X104539D01*
X102540Y198279D01*
X114536Y196280D02*
Y198279D01*
X116536D01*
Y196280D01*
X114536D01*
X124533Y206277D02*
X126532Y208276D01*
X130531D01*
X132530Y206277D01*
Y204277D01*
X130531Y202278D01*
X128532D01*
X130531D01*
X132530Y200279D01*
Y198279D01*
X130531Y196280D01*
X126532D01*
X124533Y198279D01*
X136529Y208276D02*
Y200279D01*
X140528Y196280D01*
X144526Y200279D01*
Y208276D01*
X102540Y183446D02*
X106539D01*
X104539D01*
Y171450D01*
X102540D01*
X106539D01*
X118535Y183446D02*
X114536D01*
X112537Y181447D01*
Y173449D01*
X114536Y171450D01*
X118535D01*
X120534Y173449D01*
Y181447D01*
X118535Y183446D01*
X132530Y171450D02*
X124533D01*
X132530Y179447D01*
Y181447D01*
X130531Y183446D01*
X126532D01*
X124533Y181447D01*
X144526Y183446D02*
X140528Y181447D01*
X136529Y177448D01*
Y173449D01*
X138528Y171450D01*
X142527D01*
X144526Y173449D01*
Y175449D01*
X142527Y177448D01*
X136529D01*
X110537Y156047D02*
X108538Y158046D01*
X104539D01*
X102540Y156047D01*
Y148049D01*
X104539Y146050D01*
X108538D01*
X110537Y148049D01*
Y152048D01*
X106539D01*
X513077Y237486D02*
X510537Y240025D01*
X505459D01*
X502920Y237486D01*
Y234947D01*
X505459Y232407D01*
X510537D01*
X513077Y229868D01*
Y227329D01*
X510537Y224790D01*
X505459D01*
X502920Y227329D01*
X520694Y237486D02*
Y234947D01*
X518155D01*
X523233D01*
X520694D01*
Y227329D01*
X523233Y224790D01*
X533390Y234947D02*
X538469D01*
X541008Y232407D01*
Y224790D01*
X533390D01*
X530851Y227329D01*
X533390Y229868D01*
X541008D01*
X548625Y237486D02*
Y234947D01*
X546086D01*
X551164D01*
X548625D01*
Y227329D01*
X551164Y224790D01*
X558782Y234947D02*
Y227329D01*
X561321Y224790D01*
X568939D01*
Y234947D01*
X574017Y224790D02*
X581634D01*
X584174Y227329D01*
X581634Y229868D01*
X576556D01*
X574017Y232407D01*
X576556Y234947D01*
X584174D01*
X509270Y330200D02*
Y340357D01*
X514348Y345435D01*
X519427Y340357D01*
Y330200D01*
Y337817D01*
X509270D01*
X524505Y330200D02*
X529583D01*
X527044D01*
Y345435D01*
X524505D01*
X539740Y340357D02*
X544818D01*
X547358Y337817D01*
Y330200D01*
X539740D01*
X537201Y332739D01*
X539740Y335278D01*
X547358D01*
X552436Y340357D02*
Y330200D01*
Y335278D01*
X554975Y337817D01*
X557514Y340357D01*
X560054D01*
X567671Y330200D02*
Y340357D01*
X570210D01*
X572749Y337817D01*
Y330200D01*
Y337817D01*
X575289Y340357D01*
X577828Y337817D01*
Y330200D01*
X68584Y242568D02*
X78741Y227332D01*
Y242568D02*
X68584Y227332D01*
X93976Y242568D02*
X88897Y240028D01*
X83819Y234950D01*
Y229872D01*
X86358Y227332D01*
X91437D01*
X93976Y229872D01*
Y232411D01*
X91437Y234950D01*
X83819D01*
X63504Y373377D02*
X73661Y358143D01*
Y373377D02*
X63504Y358143D01*
X88896Y373377D02*
X78739D01*
Y365760D01*
X83818Y368299D01*
X86357D01*
X88896Y365760D01*
Y360682D01*
X86357Y358143D01*
X81278D01*
X78739Y360682D01*
X562614Y144777D02*
X572771Y129543D01*
Y144777D02*
X562614Y129543D01*
X585467D02*
Y144777D01*
X577849Y137160D01*
X588006D01*
X481334Y364487D02*
X491491Y349253D01*
Y364487D02*
X481334Y349253D01*
X496569Y361948D02*
X499108Y364487D01*
X504187D01*
X506726Y361948D01*
Y359409D01*
X504187Y356870D01*
X501647D01*
X504187D01*
X506726Y354331D01*
Y351792D01*
X504187Y349253D01*
X499108D01*
X496569Y351792D01*
X506734Y574608D02*
X516891Y559372D01*
Y574608D02*
X506734Y559372D01*
X532126D02*
X521969D01*
X532126Y569529D01*
Y572068D01*
X529587Y574608D01*
X524508D01*
X521969Y572068D01*
X68583Y534668D02*
X78740Y519432D01*
Y534668D02*
X68583Y519432D01*
X83818D02*
X88897D01*
X86358D01*
Y534668D01*
X83818Y532128D01*
X576582Y162567D02*
X586739D01*
X591818Y167645D01*
X586739Y172723D01*
X576582D01*
Y177802D02*
X591818D01*
Y185419D01*
X589278Y187958D01*
X579122D01*
X576582Y185419D01*
Y177802D01*
X591818Y203193D02*
Y193037D01*
X581661Y203193D01*
X579122D01*
X576582Y200654D01*
Y195576D01*
X579122Y193037D01*
X579123Y273056D02*
X589279D01*
X594357Y278134D01*
X589279Y283213D01*
X579123D01*
Y288291D02*
X594357D01*
Y295908D01*
X591818Y298448D01*
X581662D01*
X579123Y295908D01*
Y288291D01*
X594357Y303526D02*
Y308604D01*
Y306065D01*
X579123D01*
X581662Y303526D01*
X157483Y541017D02*
Y528322D01*
X160023Y525783D01*
X165101D01*
X167640Y528322D01*
Y541017D01*
X172718Y525783D02*
X177797D01*
X175258D01*
Y541017D01*
X172718Y538478D01*
X464824Y212092D02*
Y227327D01*
X472442D01*
X474981Y224788D01*
Y219710D01*
X472442Y217171D01*
X464824D01*
X469902D02*
X474981Y212092D01*
X490216D02*
X480059D01*
X490216Y222249D01*
Y224788D01*
X487677Y227327D01*
X482598D01*
X480059Y224788D01*
X471173Y302262D02*
Y317498D01*
X478791D01*
X481330Y314958D01*
Y309880D01*
X478791Y307341D01*
X471173D01*
X476252D02*
X481330Y302262D01*
X486408D02*
X491487D01*
X488948D01*
Y317498D01*
X486408Y314958D01*
X472440Y48262D02*
Y58418D01*
X469901Y60957D01*
X464823D01*
X462283Y58418D01*
Y48262D01*
X464823Y45722D01*
X469901D01*
X467362Y50801D02*
X472440Y45722D01*
X469901D02*
X472440Y48262D01*
X477518Y45722D02*
X482597D01*
X480058D01*
Y60957D01*
X477518Y58418D01*
M02*
