G04*
G04 #@! TF.GenerationSoftware,Altium Limited,Altium Designer,22.4.2 (48)*
G04*
G04 Layer_Physical_Order=1*
G04 Layer_Color=255*
%FSLAX44Y44*%
%MOMM*%
G71*
G04*
G04 #@! TF.SameCoordinates,401EAB3C-69B4-4000-897E-A26D65C5C49B*
G04*
G04*
G04 #@! TF.FilePolarity,Positive*
G04*
G01*
G75*
%ADD14C,0.2540*%
%ADD15R,1.3000X0.7000*%
%ADD24C,0.5000*%
%ADD25C,1.0000*%
%ADD26C,1.5240*%
%ADD27C,2.0000*%
%ADD28R,2.0000X2.0000*%
%ADD29R,2.0000X2.0000*%
%ADD30R,1.5300X1.5300*%
%ADD31C,1.5300*%
%ADD32R,1.2980X1.2980*%
%ADD33C,1.2980*%
D14*
X299085Y410845D02*
X300990Y412750D01*
D15*
X480000Y289400D02*
D03*
Y269400D02*
D03*
Y179230D02*
D03*
Y199230D02*
D03*
D24*
X520000Y458470D02*
X549521D01*
X552450Y461399D02*
Y560951D01*
X474980Y563880D02*
X549521D01*
Y458470D02*
X552450Y461399D01*
X549521Y563880D02*
X552450Y560951D01*
X497140Y532700D02*
X520000D01*
X477520Y513080D02*
X497140Y532700D01*
X477520Y463550D02*
Y513080D01*
X502500Y506310D02*
X519010D01*
X495300Y499110D02*
X502500Y506310D01*
X519010D02*
X520000Y507300D01*
X495300Y445770D02*
Y499110D01*
X80350Y282590D02*
X299070D01*
X80000Y282940D02*
X80350Y282590D01*
X299070D02*
X300990Y280670D01*
X136490Y409610D02*
X297850D01*
X125860Y420240D02*
X136490Y409610D01*
X297850D02*
X299085Y410845D01*
X80000Y420240D02*
X125860D01*
X127270Y308340D02*
X140310Y295300D01*
X173000D01*
X80000Y308340D02*
X127270D01*
X137820Y269900D02*
X173000D01*
X123190Y255270D02*
X137820Y269900D01*
X123190Y201930D02*
Y255270D01*
X99600Y178340D02*
X123190Y201930D01*
X80000Y178340D02*
X99600D01*
X463550Y377190D02*
Y414020D01*
X495300Y445770D01*
X461670Y447700D02*
X477520Y463550D01*
X427000Y371500D02*
X457860D01*
X463550Y377190D01*
X427000Y447700D02*
X461670D01*
X458470Y547370D02*
X474980Y563880D01*
X458470Y481330D02*
Y547370D01*
X450240Y473100D02*
X458470Y481330D01*
X427000Y473100D02*
X450240D01*
X427000Y320700D02*
X446430D01*
X485140Y359410D01*
Y412750D01*
X502590Y430200D01*
X517130D01*
X520000Y433070D01*
X502816Y406296D02*
X518626D01*
X499110Y402590D02*
X502816Y406296D01*
X518626D02*
X520000Y407670D01*
X499110Y355600D02*
Y402590D01*
X440781Y297271D02*
X499110Y355600D01*
X453390Y275590D02*
Y288290D01*
X520000Y354900D02*
Y382270D01*
X453390Y288290D02*
X520000Y354900D01*
X427000Y295300D02*
X428971Y297271D01*
X440781D01*
X447700Y269900D02*
X453390Y275590D01*
X427000Y269900D02*
X447700D01*
X467360Y77470D02*
X480941D01*
X483870Y80399D01*
Y96520D01*
X500380Y113030D01*
X520000D01*
X427000Y142900D02*
X467030Y102870D01*
X467360D01*
X526380Y179230D02*
X531300Y184150D01*
X480000Y179230D02*
X526380D01*
X532140Y289400D02*
X532300Y289560D01*
X480000Y289400D02*
X532140D01*
X427000Y244500D02*
X452100D01*
X477000Y269400D02*
X480000D01*
X452100Y244500D02*
X477000Y269400D01*
X457130Y219100D02*
X477000Y199230D01*
X427000Y219100D02*
X457130D01*
X477000Y199230D02*
X480000D01*
X532100Y289590D02*
X532130Y289560D01*
D25*
X300990Y280670D02*
Y346710D01*
Y168910D02*
Y280670D01*
X125730Y452120D02*
Y483870D01*
X140360Y498500D02*
X173000D01*
X125730Y483870D02*
X140360Y498500D01*
X119250Y445640D02*
X125730Y452120D01*
X82770Y445640D02*
X119250D01*
X300990Y346710D02*
Y412750D01*
Y450850D01*
X80000Y471040D02*
Y496440D01*
X80857Y331827D02*
X82770Y333740D01*
X54610Y334010D02*
Y433070D01*
Y231900D02*
Y334010D01*
X54880Y333740D01*
X80000D01*
X135230Y41300D02*
X173000D01*
X36830Y139700D02*
X135230Y41300D01*
X300990Y53340D02*
Y168910D01*
Y53340D02*
X336550Y17780D01*
X474980D01*
X135160Y152940D02*
X150350Y168130D01*
X172830D02*
X173000Y168300D01*
X150350Y168130D02*
X172830D01*
X80000Y152940D02*
X135160D01*
X348640Y498500D02*
X427000D01*
X300990Y450850D02*
X348640Y498500D01*
X300990Y346710D02*
X301600Y346100D01*
X427000D01*
X173000Y168300D02*
X300380D01*
X300990Y168910D01*
X474980Y17780D02*
X519830Y62630D01*
Y87460D02*
X520000Y87630D01*
X519830Y62630D02*
Y87460D01*
X557200Y184650D02*
Y289060D01*
X556700Y184150D02*
X557200Y184650D01*
Y289060D02*
X557700Y289560D01*
X556700Y143510D02*
Y184150D01*
Y96960D02*
Y143510D01*
X482600D02*
X556700D01*
X467360Y128270D02*
X482600Y143510D01*
X547370Y87630D02*
X556700Y96960D01*
X520000Y87630D02*
X547370D01*
X80857Y443727D02*
X82770Y445640D01*
X54610Y433070D02*
X65267Y443727D01*
X80857D01*
X54610Y231900D02*
X82770Y203740D01*
X36830Y474980D02*
X57770Y495920D01*
X36830Y139700D02*
Y474980D01*
X57770Y495920D02*
X82250D01*
D26*
X575000Y575000D02*
D03*
X25000Y25000D02*
D03*
X575000D02*
D03*
X25000Y575000D02*
D03*
D27*
X80000Y496440D02*
D03*
Y445640D02*
D03*
Y471040D02*
D03*
Y333740D02*
D03*
Y308340D02*
D03*
Y203740D02*
D03*
Y178340D02*
D03*
X557700Y289560D02*
D03*
X556700Y184150D02*
D03*
X520000Y507300D02*
D03*
Y382270D02*
D03*
Y433070D02*
D03*
Y407670D02*
D03*
Y87630D02*
D03*
D28*
X80000Y420240D02*
D03*
Y282940D02*
D03*
Y152940D02*
D03*
X520000Y532700D02*
D03*
Y458470D02*
D03*
Y113030D02*
D03*
D29*
X532300Y289560D02*
D03*
X531300Y184150D02*
D03*
D30*
X173000Y498500D02*
D03*
D31*
Y473100D02*
D03*
Y447700D02*
D03*
Y422300D02*
D03*
Y396900D02*
D03*
Y371500D02*
D03*
Y346100D02*
D03*
Y320700D02*
D03*
Y295300D02*
D03*
Y269900D02*
D03*
Y244500D02*
D03*
Y219100D02*
D03*
Y193700D02*
D03*
Y168300D02*
D03*
Y142900D02*
D03*
Y117500D02*
D03*
Y92100D02*
D03*
Y66700D02*
D03*
Y41300D02*
D03*
X427000D02*
D03*
Y66700D02*
D03*
Y92100D02*
D03*
Y117500D02*
D03*
Y142900D02*
D03*
Y168300D02*
D03*
Y193700D02*
D03*
Y219100D02*
D03*
Y244500D02*
D03*
Y269900D02*
D03*
Y295300D02*
D03*
Y320700D02*
D03*
Y346100D02*
D03*
Y371500D02*
D03*
Y396900D02*
D03*
Y422300D02*
D03*
Y447700D02*
D03*
Y473100D02*
D03*
Y498500D02*
D03*
D32*
X467360Y128270D02*
D03*
D33*
Y102870D02*
D03*
Y77470D02*
D03*
M02*
