G04*
G04 #@! TF.GenerationSoftware,Altium Limited,Altium Designer,22.4.2 (48)*
G04*
G04 Layer_Physical_Order=2*
G04 Layer_Color=16711680*
%FSLAX44Y44*%
%MOMM*%
G71*
G04*
G04 #@! TF.SameCoordinates,401EAB3C-69B4-4000-897E-A26D65C5C49B*
G04*
G04*
G04 #@! TF.FilePolarity,Positive*
G04*
G01*
G75*
%ADD26C,1.5240*%
%ADD27C,2.0000*%
%ADD28R,2.0000X2.0000*%
%ADD29R,2.0000X2.0000*%
%ADD30R,1.5300X1.5300*%
%ADD31C,1.5300*%
%ADD32R,1.2980X1.2980*%
%ADD33C,1.2980*%
D26*
X575000Y575000D02*
D03*
X25000Y25000D02*
D03*
X575000D02*
D03*
X25000Y575000D02*
D03*
D27*
X80000Y496440D02*
D03*
Y445640D02*
D03*
Y471040D02*
D03*
Y333740D02*
D03*
Y308340D02*
D03*
Y203740D02*
D03*
Y178340D02*
D03*
X557700Y289560D02*
D03*
X556700Y184150D02*
D03*
X520000Y507300D02*
D03*
Y382270D02*
D03*
Y433070D02*
D03*
Y407670D02*
D03*
Y87630D02*
D03*
D28*
X80000Y420240D02*
D03*
Y282940D02*
D03*
Y152940D02*
D03*
X520000Y532700D02*
D03*
Y458470D02*
D03*
Y113030D02*
D03*
D29*
X532300Y289560D02*
D03*
X531300Y184150D02*
D03*
D30*
X173000Y498500D02*
D03*
D31*
Y473100D02*
D03*
Y447700D02*
D03*
Y422300D02*
D03*
Y396900D02*
D03*
Y371500D02*
D03*
Y346100D02*
D03*
Y320700D02*
D03*
Y295300D02*
D03*
Y269900D02*
D03*
Y244500D02*
D03*
Y219100D02*
D03*
Y193700D02*
D03*
Y168300D02*
D03*
Y142900D02*
D03*
Y117500D02*
D03*
Y92100D02*
D03*
Y66700D02*
D03*
Y41300D02*
D03*
X427000D02*
D03*
Y66700D02*
D03*
Y92100D02*
D03*
Y117500D02*
D03*
Y142900D02*
D03*
Y168300D02*
D03*
Y193700D02*
D03*
Y219100D02*
D03*
Y244500D02*
D03*
Y269900D02*
D03*
Y295300D02*
D03*
Y320700D02*
D03*
Y346100D02*
D03*
Y371500D02*
D03*
Y396900D02*
D03*
Y422300D02*
D03*
Y447700D02*
D03*
Y473100D02*
D03*
Y498500D02*
D03*
D32*
X467360Y128270D02*
D03*
D33*
Y102870D02*
D03*
Y77470D02*
D03*
M02*
